<svg id="svg" version="1.1" width="400.000mm" height="400.000mm" viewBox="0 0 400 400"  xmlns="http://www.w3.org/2000/svg"><path d="M0.000 200.000 L 0.000 400.000 200.000 400.000 L 400.000 400.000 400.000 200.000 L 400.000 0.000 200.000 0.000 L 0.000 0.000 0.000 200.000 M143.000 33.919 C 143.000 35.171,139.100 35.970,138.412 34.858 C 138.088 34.334,138.081 33.231,138.397 32.409 C 138.845 31.240,139.410 31.149,140.985 31.992 C 142.093 32.585,143.000 33.452,143.000 33.919 M135.626 35.533 C 135.316 36.340,134.544 37.000,133.909 37.000 C 133.125 37.000,133.195 36.467,134.128 35.336 C 135.368 33.832,135.290 33.784,133.316 34.836 C 130.595 36.286,129.686 36.317,130.543 34.930 C 131.494 33.391,135.435 32.071,135.844 33.155 C 136.034 33.656,135.935 34.726,135.626 35.533 M146.434 38.595 C 147.468 42.712,149.876 45.743,152.514 46.247 C 153.848 46.502,154.703 46.328,154.413 45.860 C 154.124 45.392,155.038 44.484,156.444 43.844 C 157.850 43.203,159.000 42.285,159.000 41.804 C 159.000 41.323,159.787 41.362,160.750 41.890 C 163.530 43.416,184.000 63.613,184.000 64.831 C 184.000 65.435,185.350 67.468,187.000 69.347 C 188.650 71.226,190.000 73.204,190.000 73.741 C 190.000 74.279,191.912 76.861,194.250 79.481 C 196.588 82.100,200.750 88.801,203.500 94.371 C 208.317 104.129,208.620 104.500,211.765 104.489 C 214.297 104.481,214.886 104.818,214.387 105.989 C 213.006 109.229,212.857 111.864,213.940 113.888 C 215.189 116.221,217.589 116.699,218.271 114.750 C 218.586 113.849,219.301 114.027,220.833 115.386 C 222.842 117.169,222.995 117.176,223.635 115.508 C 224.096 114.306,223.546 113.124,221.906 111.798 C 220.523 110.680,219.970 109.656,220.605 109.391 C 221.212 109.138,221.510 107.887,221.266 106.612 C 221.003 105.237,222.049 101.996,223.836 98.647 C 227.517 91.750,225.908 91.034,219.961 96.922 C 215.087 101.747,214.710 100.434,219.460 95.176 C 221.365 93.067,224.714 90.754,226.914 90.028 C 230.409 88.875,231.227 88.919,233.454 90.378 C 234.854 91.295,236.052 92.823,236.115 93.773 C 236.342 97.173,235.792 99.525,234.407 101.079 C 233.633 101.947,233.000 103.641,233.000 104.842 C 233.000 106.044,232.492 107.840,231.872 108.834 C 231.012 110.211,231.131 112.186,232.372 117.134 C 233.267 120.706,234.000 124.310,234.000 125.144 C 234.000 125.979,235.063 128.760,236.362 131.326 C 237.661 133.892,239.533 138.564,240.522 141.710 C 241.750 145.612,243.779 148.987,246.911 152.335 C 251.210 156.930,251.490 157.565,251.342 162.370 C 251.255 165.192,251.220 171.325,251.264 176.000 C 251.353 185.369,251.354 185.359,250.862 216.000 C 250.520 237.366,250.533 237.527,253.009 241.909 C 256.416 247.939,257.931 248.723,263.207 247.185 C 265.568 246.498,270.584 245.412,274.353 244.774 C 280.757 243.689,281.511 243.763,285.853 245.906 C 293.440 249.651,303.000 255.977,303.000 257.253 C 303.000 258.124,306.094 257.524,313.277 255.259 C 317.880 253.807,318.327 253.851,325.527 256.477 C 332.819 259.137,334.296 260.685,332.235 263.505 C 331.422 264.617,325.130 267.000,323.008 267.000 C 321.028 267.000,318.000 270.043,318.000 272.033 C 318.000 272.980,318.646 274.291,319.435 274.946 C 320.224 275.600,321.763 277.851,322.855 279.947 C 324.908 283.885,324.321 286.000,321.175 286.000 C 320.125 286.000,319.908 286.790,320.350 289.002 C 320.884 291.671,320.509 292.296,316.975 294.635 C 314.789 296.082,313.000 297.892,313.000 298.658 C 313.000 299.423,311.969 300.441,310.709 300.921 C 309.449 301.400,307.819 302.514,307.086 303.396 C 306.354 304.278,305.023 305.007,304.128 305.015 C 302.981 305.026,302.859 305.259,303.712 305.801 C 305.418 306.885,304.138 310.966,302.141 310.811 C 298.146 310.500,296.000 311.099,296.000 312.522 C 296.000 314.389,288.215 323.000,286.528 323.000 C 285.858 323.000,284.476 323.921,283.457 325.047 C 282.439 326.173,279.926 328.037,277.875 329.191 C 275.604 330.467,273.890 332.306,273.494 333.893 C 272.170 339.204,269.188 342.628,264.770 343.915 C 262.093 344.695,259.351 346.498,257.419 348.749 L 254.339 352.339 252.089 350.089 C 249.979 347.979,249.759 347.947,248.564 349.582 C 247.743 350.705,246.654 351.081,245.504 350.640 C 244.302 350.179,243.254 350.620,242.294 351.991 C 240.123 355.090,233.537 358.023,228.769 358.013 C 213.031 357.980,207.000 358.392,207.000 359.499 C 207.000 360.404,205.393 360.375,200.250 359.380 C 196.537 358.661,192.124 358.057,190.441 358.037 C 188.759 358.017,186.509 357.352,185.441 356.561 C 183.698 355.269,183.645 354.886,184.924 352.811 C 185.764 351.447,186.379 347.702,186.424 343.673 C 186.499 336.974,186.575 336.782,190.500 333.464 C 200.539 324.977,200.426 325.128,198.400 322.890 C 197.398 321.783,195.803 321.080,194.854 321.328 C 193.905 321.576,192.218 321.141,191.104 320.360 C 188.894 318.812,184.542 319.380,182.000 321.548 C 181.175 322.251,178.512 322.978,176.081 323.163 C 171.815 323.488,171.632 323.385,170.780 320.163 C 170.192 317.940,169.438 317.002,168.520 317.354 C 167.762 317.645,165.530 318.185,163.560 318.555 C 161.590 318.924,159.667 319.730,159.286 320.346 C 157.995 322.436,158.322 325.000,159.881 325.000 C 161.243 325.000,161.252 325.177,159.958 326.470 C 159.150 327.279,156.342 328.119,153.719 328.337 C 151.097 328.556,148.139 329.469,147.147 330.367 C 146.154 331.265,144.347 332.000,143.131 332.000 C 141.914 332.000,139.608 332.969,138.006 334.154 C 134.706 336.594,129.626 336.847,127.149 334.695 C 126.242 333.906,125.033 333.090,124.462 332.880 C 123.891 332.671,121.528 330.425,119.212 327.888 C 115.262 323.563,113.789 320.000,115.952 320.000 C 116.476 320.000,116.754 318.323,116.570 316.274 C 116.261 312.832,115.983 312.535,112.933 312.382 C 111.117 312.290,109.102 311.492,108.455 310.608 C 107.809 309.723,106.851 309.000,106.328 309.000 C 104.843 309.000,101.547 303.921,100.092 299.391 C 98.640 294.869,98.942 290.306,101.441 279.000 C 102.353 274.875,102.992 269.682,102.861 267.459 C 102.730 265.237,102.874 262.987,103.180 262.459 C 103.487 261.932,104.049 259.700,104.429 257.500 C 105.404 251.861,107.178 247.146,108.517 246.632 C 111.200 245.602,121.000 237.602,121.000 236.442 C 121.000 235.744,119.653 232.542,118.008 229.326 C 114.769 222.998,112.000 213.635,112.000 209.010 C 112.000 207.420,111.580 205.859,111.067 205.542 C 109.711 204.704,107.994 195.447,107.906 188.500 C 107.823 181.935,106.778 176.657,104.343 170.500 C 101.424 163.122,101.184 162.508,100.433 160.500 C 100.021 159.400,99.773 157.948,99.881 157.274 C 99.988 156.600,99.402 154.745,98.578 153.151 C 97.754 151.557,97.320 150.014,97.613 149.721 C 97.906 149.427,97.721 147.649,97.202 145.769 C 96.466 143.104,96.682 141.263,98.179 137.425 C 99.235 134.716,100.542 129.883,101.082 126.685 C 101.623 123.486,102.450 120.111,102.920 119.185 C 103.391 118.258,104.993 114.800,106.482 111.500 C 107.971 108.200,109.760 104.375,110.459 103.000 C 111.961 100.041,112.991 95.998,113.641 90.500 C 114.619 82.223,122.320 60.000,124.210 60.000 C 124.844 60.000,124.776 59.436,124.036 58.544 C 123.372 57.743,123.161 56.549,123.567 55.891 C 123.974 55.233,124.229 52.500,124.134 49.818 C 123.980 45.480,124.351 44.540,127.481 41.317 L 131.000 37.693 131.000 41.147 C 131.000 43.046,131.406 45.028,131.903 45.550 C 132.400 46.073,132.962 47.362,133.153 48.416 C 133.523 50.460,136.438 51.310,143.500 51.431 C 147.300 51.497,147.490 51.356,147.295 48.628 C 147.027 44.870,146.632 44.585,143.301 45.741 C 140.463 46.725,136.000 45.581,136.000 43.869 C 136.000 43.414,137.129 43.557,138.509 44.186 C 140.452 45.071,141.579 45.028,143.509 43.995 C 146.322 42.490,146.782 41.000,144.434 41.000 C 139.572 41.000,137.775 36.515,142.335 35.757 C 145.258 35.272,145.672 35.558,146.434 38.595 M143.333 38.667 C 143.700 39.033,144.300 39.033,144.667 38.667 C 145.033 38.300,144.733 38.000,144.000 38.000 C 143.267 38.000,142.967 38.300,143.333 38.667 M128.638 45.500 C 128.322 46.325,128.499 47.000,129.031 47.000 C 129.564 47.000,130.000 46.325,130.000 45.500 C 130.000 44.675,129.823 44.000,129.607 44.000 C 129.391 44.000,128.955 44.675,128.638 45.500 M160.000 46.000 C 159.099 46.582,158.975 46.975,159.691 46.985 C 160.346 46.993,161.160 46.550,161.500 46.000 C 162.267 44.758,161.921 44.758,160.000 46.000 M125.405 47.155 C 124.962 47.870,125.130 48.038,125.845 47.595 C 126.480 47.203,127.000 46.684,127.000 46.441 C 127.000 45.607,126.117 46.002,125.405 47.155 M126.395 49.414 C 125.626 51.416,126.522 58.500,128.408 65.332 C 130.269 72.076,131.687 75.009,133.913 76.718 C 134.856 77.442,135.020 77.949,134.317 77.968 C 133.667 77.986,132.847 78.907,132.495 80.015 C 132.144 81.123,131.438 81.770,130.926 81.454 C 130.415 81.138,129.559 82.030,129.025 83.435 C 126.250 90.732,129.307 116.721,134.186 127.316 C 136.089 131.449,136.198 132.278,134.952 133.161 C 133.745 134.015,133.780 134.099,135.159 133.660 C 136.861 133.119,137.246 134.875,138.529 149.000 C 139.158 155.928,140.602 163.188,142.009 166.500 C 143.622 170.298,143.729 171.098,144.498 185.000 C 145.010 194.252,146.386 202.084,148.539 208.000 C 148.639 208.275,149.063 209.952,149.481 211.728 C 149.899 213.503,150.862 215.470,151.621 216.100 C 152.379 216.730,153.000 217.847,153.000 218.582 C 153.000 220.444,158.114 225.000,160.205 225.000 C 162.592 225.000,163.979 228.024,163.369 231.898 C 162.948 234.569,163.222 235.245,164.904 235.685 C 166.493 236.101,166.744 236.610,166.023 237.957 C 165.005 239.859,166.435 242.000,168.725 242.000 C 169.453 242.000,170.477 243.125,171.000 244.500 C 171.523 245.875,172.336 247.000,172.808 247.000 C 173.280 247.000,173.553 248.013,173.416 249.250 C 173.279 250.488,173.095 251.500,173.007 251.500 C 172.919 251.500,172.684 252.371,172.485 253.436 C 172.285 254.500,172.957 256.075,173.977 256.936 C 180.376 262.333,180.309 262.298,181.921 261.134 C 184.864 259.011,188.485 257.781,192.736 257.462 C 197.772 257.085,199.002 258.418,196.106 261.116 C 192.129 264.821,194.550 269.382,199.179 266.904 C 201.133 265.858,201.186 266.010,200.530 270.784 C 199.854 275.695,199.875 275.746,202.377 275.268 C 204.456 274.871,205.025 275.250,205.562 277.392 C 205.922 278.827,205.934 281.125,205.589 282.500 C 204.971 284.963,205.623 285.486,208.785 285.067 C 209.746 284.939,209.643 285.856,208.377 288.698 C 207.446 290.789,206.483 294.190,206.237 296.256 C 205.990 298.322,205.386 300.261,204.894 300.565 C 204.402 300.869,204.000 302.404,204.000 303.976 C 204.000 305.547,203.490 307.003,202.867 307.211 C 200.694 307.935,201.341 317.328,203.907 322.319 C 205.950 326.292,206.761 327.000,209.264 327.000 C 211.668 327.000,212.087 326.676,211.527 325.250 C 211.150 324.288,210.464 321.250,210.003 318.500 C 209.542 315.750,208.690 312.266,208.110 310.759 C 207.531 309.251,207.322 307.325,207.646 306.479 C 208.571 304.070,210.929 307.766,210.968 311.685 C 211.011 315.986,212.259 318.901,215.653 322.625 C 218.072 325.281,219.026 325.674,222.000 325.247 C 223.925 324.971,225.210 325.054,224.856 325.433 C 224.284 326.045,217.184 327.272,207.000 328.520 C 198.302 329.585,196.577 330.085,193.497 332.434 C 191.694 333.810,189.742 336.300,189.161 337.968 C 188.580 339.635,188.193 341.051,188.302 341.114 C 188.411 341.177,189.844 341.383,191.486 341.572 C 193.128 341.762,194.628 342.385,194.819 342.958 C 195.356 344.568,198.795 344.189,199.790 342.410 C 200.279 341.536,200.977 340.861,201.340 340.910 C 201.703 340.960,202.338 340.948,202.750 340.885 C 203.162 340.821,204.174 340.709,204.997 340.635 C 205.821 340.561,206.496 339.938,206.497 339.250 C 206.500 337.877,207.175 337.746,209.553 338.659 C 210.419 338.991,212.245 338.754,213.611 338.131 C 217.107 336.539,218.800 336.722,219.188 338.737 C 219.432 340.007,220.174 339.402,221.944 336.487 C 223.766 333.487,224.463 332.933,224.756 334.250 C 225.163 336.075,227.000 336.718,227.000 335.035 C 227.000 333.563,230.655 331.930,232.428 332.611 C 234.592 333.441,234.414 334.354,231.385 337.954 C 229.497 340.199,228.227 340.889,226.815 340.441 C 225.389 339.989,224.716 340.371,224.328 341.853 C 223.994 343.133,222.630 344.133,220.648 344.554 C 218.917 344.922,216.825 345.794,216.000 346.493 C 213.765 348.386,210.257 349.224,209.525 348.041 C 209.171 347.468,208.051 347.000,207.035 347.000 C 205.680 347.000,205.327 346.467,205.710 345.000 C 206.003 343.882,205.741 343.000,205.117 343.000 C 204.502 343.000,204.000 344.070,204.000 345.378 C 204.000 346.685,203.295 348.340,202.434 349.054 C 201.136 350.132,200.369 350.059,197.942 348.625 C 195.157 346.980,194.894 346.983,192.539 348.698 C 189.324 351.038,189.148 354.227,192.250 353.923 C 193.488 353.802,195.175 353.957,196.000 354.268 C 203.324 357.027,211.535 357.299,216.828 354.958 C 219.263 353.881,221.820 353.000,222.511 353.000 C 223.202 353.000,225.437 351.087,227.477 348.750 C 238.650 335.949,243.369 331.000,244.402 331.000 C 245.036 331.000,246.892 329.694,248.527 328.098 C 255.167 321.617,255.331 319.934,249.267 320.497 L 245.558 320.842 248.029 318.943 C 249.388 317.899,250.838 317.034,251.250 317.022 C 251.662 317.010,252.000 316.152,252.000 315.117 C 252.000 314.074,252.893 313.000,254.000 312.710 C 255.241 312.386,256.000 311.346,256.000 309.971 C 256.000 308.028,255.797 307.923,254.356 309.120 C 252.884 310.341,252.791 310.223,253.467 307.992 C 255.034 302.825,259.567 295.503,261.050 295.742 C 262.226 295.932,262.469 295.118,262.169 291.979 C 261.920 289.368,262.370 287.084,263.461 285.419 C 265.527 282.267,266.094 274.380,264.228 274.757 C 263.528 274.899,262.488 273.783,261.915 272.278 C 261.343 270.772,260.341 269.208,259.687 268.801 C 258.781 268.236,258.810 267.562,259.807 265.952 C 260.699 264.514,260.795 263.458,260.109 262.631 C 259.395 261.771,259.947 260.515,262.012 258.306 C 263.612 256.594,265.501 254.982,266.210 254.725 C 267.204 254.365,267.238 253.825,266.361 252.379 C 264.516 249.336,258.498 250.397,248.664 255.499 C 243.893 257.975,239.449 260.000,238.788 260.000 C 236.322 260.000,225.238 268.588,217.611 276.410 C 213.271 280.860,210.300 283.393,211.008 282.040 C 211.716 280.687,215.157 276.690,218.654 273.158 C 224.227 267.530,224.982 266.317,224.754 263.349 C 224.611 261.486,224.045 259.997,223.497 260.040 C 222.949 260.083,222.245 259.079,221.934 257.809 C 221.592 256.416,220.736 255.608,219.775 255.773 C 218.082 256.063,212.000 249.413,212.000 247.272 C 212.000 245.227,214.805 245.810,215.500 248.000 C 216.298 250.514,217.639 250.551,219.170 248.100 C 219.822 247.055,220.951 246.428,221.678 246.707 C 222.405 246.986,223.000 246.716,223.000 246.107 C 223.000 245.498,222.615 245.000,222.144 245.000 C 221.672 245.000,221.237 243.762,221.175 242.250 C 221.114 240.737,220.894 238.150,220.688 236.500 C 220.481 234.850,220.242 232.037,220.156 230.250 C 220.002 227.047,219.929 227.000,215.107 227.000 C 211.680 227.000,210.042 226.551,209.638 225.500 C 209.322 224.675,208.374 224.000,207.531 224.000 C 205.538 224.000,205.564 223.840,208.468 218.251 C 224.903 186.609,229.137 173.043,224.802 165.914 C 222.459 162.063,219.805 162.407,218.932 166.677 C 218.408 169.240,218.638 169.934,220.143 170.327 C 221.990 170.810,222.681 173.984,221.250 175.419 C 220.838 175.833,220.401 177.595,220.280 179.336 C 220.087 182.097,219.523 186.956,219.129 189.250 C 219.058 189.662,218.323 190.000,217.495 190.000 C 216.313 190.000,216.018 188.754,216.122 184.189 C 216.194 180.993,215.792 177.505,215.228 176.439 C 212.574 171.420,208.000 160.162,208.000 158.650 C 208.000 155.991,203.184 144.826,201.057 142.554 C 199.999 141.424,198.654 139.235,198.068 137.690 C 197.483 136.144,196.549 135.161,195.993 135.504 C 194.598 136.367,191.000 135.111,191.000 133.761 C 191.000 133.154,191.706 131.877,192.569 130.924 C 194.000 129.343,193.956 128.833,192.069 125.135 C 190.931 122.905,190.000 119.923,190.000 118.508 C 190.000 117.094,189.325 115.678,188.500 115.362 C 186.833 114.722,186.428 112.000,188.000 112.000 C 189.815 112.000,189.040 110.147,186.947 109.483 C 185.492 109.021,185.184 108.483,185.888 107.634 C 186.595 106.783,186.033 105.868,183.944 104.469 C 182.328 103.386,181.004 101.993,181.003 101.372 C 181.001 100.752,180.314 99.676,179.476 98.980 C 178.638 98.284,178.172 97.495,178.441 97.226 C 178.710 96.957,178.400 95.784,177.752 94.619 C 177.105 93.453,176.671 92.163,176.788 91.750 C 176.904 91.338,176.086 90.086,174.969 88.969 C 173.852 87.852,172.663 85.563,172.327 83.883 C 171.991 82.203,171.125 80.602,170.404 80.325 C 169.682 80.048,168.131 77.836,166.957 75.411 C 165.782 72.985,164.462 71.000,164.022 71.000 C 163.582 71.000,162.933 69.458,162.580 67.572 C 162.061 64.808,161.365 64.019,158.981 63.496 C 157.355 63.139,155.007 61.547,153.762 59.958 C 152.142 57.890,151.093 57.322,150.065 57.959 C 148.851 58.710,148.827 59.516,149.906 63.174 C 151.829 69.692,154.880 76.057,157.963 79.982 C 161.660 84.689,163.835 89.191,163.233 90.889 C 162.932 91.738,163.180 92.007,163.870 91.580 C 164.492 91.196,165.000 91.295,165.000 91.800 C 165.000 92.305,166.791 94.753,168.979 97.239 C 172.955 101.756,175.486 106.459,175.134 108.675 C 175.031 109.321,175.409 110.135,175.973 110.484 C 176.538 110.833,177.000 112.415,177.000 114.000 C 177.000 115.585,177.450 117.160,178.000 117.500 C 178.550 117.840,179.000 119.019,179.000 120.121 C 179.000 122.057,180.952 129.315,183.137 135.500 C 184.298 138.787,185.818 144.816,186.667 149.500 L 187.211 152.500 184.009 149.082 C 182.247 147.203,179.653 143.921,178.242 141.790 C 176.706 139.469,175.041 138.046,174.089 138.241 C 172.142 138.640,169.000 133.865,169.000 130.507 C 169.000 128.791,169.429 128.227,170.439 128.615 C 171.231 128.919,172.653 128.734,173.599 128.204 C 175.170 127.325,175.130 127.140,173.139 126.075 C 171.940 125.433,170.560 125.154,170.073 125.455 C 169.585 125.756,169.440 125.032,169.751 123.845 C 170.137 122.366,169.951 121.912,169.158 122.403 C 168.427 122.854,168.000 122.376,168.000 121.107 C 168.000 120.001,166.484 117.612,164.632 115.798 C 161.017 112.258,160.336 110.723,159.625 104.500 C 158.992 98.967,157.906 94.731,156.740 93.250 C 156.076 92.408,156.121 92.000,156.878 92.000 C 157.495 92.000,158.000 91.550,158.000 91.000 C 158.000 90.450,157.607 90.000,157.126 90.000 C 156.645 90.000,154.551 88.442,152.472 86.538 C 149.484 83.801,148.932 82.787,149.837 81.696 C 151.200 80.054,150.388 79.000,147.762 79.000 C 146.385 79.000,145.921 79.624,146.087 81.250 C 146.213 82.487,145.953 85.282,145.508 87.459 C 144.777 91.035,144.617 91.198,143.858 89.145 C 143.395 87.895,142.565 87.151,142.012 87.493 C 140.681 88.315,140.892 76.927,142.240 75.251 C 143.850 73.247,141.264 68.293,138.165 67.443 L 135.500 66.713 137.967 66.069 C 139.765 65.600,140.634 64.487,141.172 61.963 C 142.299 56.683,141.354 54.721,137.925 55.224 C 135.640 55.560,135.272 55.377,136.137 54.335 C 137.566 52.613,134.367 51.233,132.733 52.867 C 132.110 53.490,130.678 53.986,129.550 53.970 C 127.690 53.942,127.661 53.845,129.233 52.929 C 130.677 52.088,130.762 51.591,129.743 49.960 C 128.298 47.646,127.145 47.458,126.395 49.414 M154.500 49.000 C 154.160 49.550,154.332 50.000,154.882 50.000 C 155.432 50.000,156.160 49.550,156.500 49.000 C 156.840 48.450,156.668 48.000,156.118 48.000 C 155.568 48.000,154.840 48.450,154.500 49.000 M142.333 55.667 C 142.700 56.033,143.300 56.033,143.667 55.667 C 144.033 55.300,143.733 55.000,143.000 55.000 C 142.267 55.000,141.967 55.300,142.333 55.667 M164.250 55.662 C 162.121 56.521,162.872 59.621,165.500 60.818 C 166.875 61.445,168.000 62.399,168.000 62.940 C 168.000 63.480,169.688 65.677,171.750 67.822 C 175.870 72.105,180.797 78.898,183.040 83.385 C 185.000 87.306,188.695 89.705,190.301 88.099 C 191.232 87.168,190.988 86.075,189.210 83.200 C 187.952 81.165,186.018 77.588,184.914 75.250 C 183.810 72.912,182.466 71.000,181.928 71.000 C 181.391 71.000,180.523 69.875,180.000 68.500 C 179.477 67.125,178.394 66.000,177.592 66.000 C 176.791 66.000,175.849 65.100,175.500 64.000 C 175.151 62.900,174.497 62.000,174.047 62.000 C 173.596 62.000,172.480 60.425,171.567 58.500 C 169.947 55.086,167.770 54.242,164.250 55.662 M123.376 64.857 C 119.920 73.834,116.889 85.046,117.171 87.809 L 117.500 91.033 120.245 87.576 C 122.321 84.962,123.479 81.604,124.992 73.809 C 126.093 68.139,126.995 63.436,126.997 63.357 C 126.999 63.278,126.414 62.989,125.697 62.714 C 124.940 62.424,123.967 63.322,123.376 64.857 M179.000 82.000 C 179.000 82.733,179.300 83.033,179.667 82.667 C 180.033 82.300,180.033 81.700,179.667 81.333 C 179.300 80.967,179.000 81.267,179.000 82.000 M132.683 86.188 C 132.364 86.985,132.127 86.748,132.079 85.583 C 132.036 84.529,132.272 83.939,132.604 84.271 C 132.936 84.603,132.972 85.466,132.683 86.188 M121.290 90.250 C 120.765 90.938,119.434 93.300,118.334 95.500 C 117.233 97.700,114.559 102.875,112.391 107.000 C 106.087 118.995,99.583 138.014,99.799 143.822 C 99.854 145.295,101.047 149.398,102.449 152.940 C 103.852 156.481,105.000 160.363,105.000 161.565 C 105.000 162.767,106.125 166.295,107.500 169.404 C 109.019 172.838,109.999 176.910,109.997 179.779 C 109.993 184.984,113.606 198.727,115.533 200.843 C 116.466 201.866,116.489 202.895,115.628 205.173 C 114.684 207.676,114.774 208.362,116.184 209.393 C 117.553 210.394,118.758 213.140,119.523 217.000 C 119.577 217.275,120.398 219.281,121.346 221.457 C 122.295 223.633,122.972 227.324,122.851 229.659 C 122.673 233.101,123.139 234.412,125.316 236.588 C 126.792 238.065,128.000 239.838,128.000 240.529 C 128.000 241.221,128.600 242.016,129.334 242.298 C 130.068 242.580,130.730 244.432,130.804 246.415 C 130.879 248.397,131.403 250.885,131.970 251.944 C 132.536 253.002,133.000 254.991,133.000 256.363 C 133.000 257.735,133.736 259.593,134.636 260.493 C 136.414 262.271,135.662 263.597,132.557 264.156 C 129.925 264.630,124.129 276.304,123.947 281.500 C 123.599 291.402,123.695 291.674,128.316 293.911 C 133.434 296.388,133.336 296.381,137.349 294.607 C 139.082 293.841,141.309 292.947,142.297 292.620 C 143.311 292.285,143.965 291.259,143.797 290.263 C 143.549 288.789,144.263 288.500,148.160 288.500 C 150.723 288.500,153.139 288.183,153.530 287.797 C 154.708 286.630,153.071 282.000,151.481 282.000 C 150.666 282.000,150.000 281.190,150.000 280.200 C 150.000 277.671,148.041 276.003,145.050 275.985 C 141.949 275.966,140.648 275.162,139.168 272.350 C 137.955 270.045,139.138 269.000,142.959 269.000 C 143.947 269.000,145.315 268.325,146.000 267.500 C 146.685 266.675,148.331 266.000,149.658 266.000 C 152.996 266.000,157.000 263.169,157.000 260.809 C 157.000 259.131,156.407 258.890,152.902 259.143 C 149.193 259.411,148.682 259.157,147.515 256.469 C 146.806 254.836,145.275 252.717,144.113 251.760 C 141.610 249.698,141.478 248.678,143.500 247.000 C 145.424 245.403,145.438 243.000,143.523 243.000 C 141.177 243.000,138.686 238.389,139.430 235.424 C 139.949 233.354,139.670 232.726,138.040 232.300 C 135.720 231.694,135.493 230.907,137.158 229.242 C 138.034 228.366,138.002 227.707,137.022 226.527 C 135.943 225.226,136.055 224.683,137.708 223.235 C 140.288 220.972,140.588 212.004,138.083 211.993 C 137.213 211.990,135.150 211.093,133.500 210.000 C 131.850 208.907,130.907 208.010,131.405 208.007 C 131.903 208.003,131.505 207.111,130.521 206.024 C 129.538 204.937,128.343 204.288,127.866 204.583 C 126.388 205.496,126.916 203.315,128.489 202.009 C 130.548 200.301,129.446 199.000,125.941 199.000 C 124.323 199.000,123.007 198.662,123.015 198.250 C 123.050 196.553,124.853 194.791,125.895 195.435 C 127.817 196.623,128.219 193.325,126.547 190.090 C 125.304 187.687,124.287 187.000,121.974 187.000 C 118.271 187.000,118.137 185.223,121.562 181.528 C 124.396 178.470,124.159 176.000,121.031 176.000 C 119.249 176.000,118.998 175.356,118.985 170.750 C 118.965 163.705,117.216 160.412,113.695 160.788 C 111.556 161.016,111.000 160.655,111.000 159.038 C 111.000 157.917,110.550 157.000,110.000 157.000 C 108.344 157.000,108.876 152.169,110.640 151.181 C 112.785 149.981,111.370 147.670,108.888 148.319 C 106.113 149.045,105.758 147.578,108.014 144.710 C 109.144 143.273,110.000 140.662,110.000 138.651 C 110.000 136.708,110.468 134.829,111.041 134.475 C 111.613 134.121,111.825 133.023,111.511 132.034 C 111.170 130.960,111.527 130.012,112.398 129.677 C 113.200 129.370,114.001 127.857,114.178 126.316 C 114.395 124.424,115.392 123.089,117.250 122.203 C 120.294 120.751,120.789 119.240,118.509 118.365 C 117.240 117.878,117.300 117.434,118.912 115.385 C 119.976 114.032,120.581 112.112,120.291 111.006 C 119.918 109.579,120.446 108.781,122.206 108.112 C 124.417 107.271,124.654 106.582,124.821 100.494 C 124.923 96.812,125.268 93.375,125.589 92.856 C 126.205 91.860,124.285 89.000,123.000 89.000 C 122.585 89.000,121.815 89.563,121.290 90.250 M139.903 92.383 C 140.793 93.456,140.680 93.909,139.399 94.400 C 137.167 95.257,134.362 93.021,136.203 91.854 C 138.004 90.711,138.584 90.794,139.903 92.383 M188.000 92.000 C 188.000 92.733,188.300 93.033,188.667 92.667 C 189.033 92.300,189.033 91.700,188.667 91.333 C 188.300 90.967,188.000 91.267,188.000 92.000 M192.000 92.895 C 192.000 94.394,191.554 94.766,190.326 94.295 C 189.036 93.800,188.807 94.055,189.326 95.408 C 189.697 96.374,190.000 97.352,190.000 97.582 C 190.000 97.812,190.727 98.000,191.617 98.000 C 192.793 98.000,193.106 98.667,192.765 100.450 C 192.465 102.017,192.824 103.102,193.762 103.462 C 194.684 103.816,195.023 104.804,194.677 106.129 C 194.337 107.428,195.051 109.631,196.541 111.883 C 197.870 113.890,199.266 117.081,199.644 118.972 C 200.023 120.864,200.930 123.557,201.660 124.956 C 202.390 126.355,202.990 128.261,202.994 129.191 C 202.997 130.121,203.472 131.173,204.048 131.530 C 204.624 131.886,205.022 132.925,204.933 133.839 C 204.528 137.964,205.131 139.907,207.000 140.500 C 208.220 140.887,209.000 142.013,209.000 143.387 C 209.000 144.626,210.619 147.532,212.598 149.843 C 214.697 152.296,215.958 154.666,215.625 155.534 C 214.774 157.754,216.070 163.000,217.470 163.000 C 219.884 163.000,222.002 159.253,222.598 153.927 C 223.536 145.547,223.130 142.751,220.579 140.020 C 219.284 138.634,217.919 136.488,217.545 135.250 C 217.171 134.012,216.446 133.000,215.933 133.000 C 215.420 133.000,215.000 132.518,215.000 131.929 C 215.000 130.863,212.573 128.000,211.669 128.000 C 211.409 128.000,210.713 129.384,210.124 131.075 C 209.534 132.766,208.590 133.865,208.026 133.516 C 206.711 132.704,206.694 129.307,208.000 128.500 C 210.264 127.101,208.683 120.540,205.256 117.113 C 204.470 116.327,204.029 114.630,204.275 113.342 C 204.521 112.054,204.335 111.000,203.861 111.000 C 203.388 111.000,203.000 110.377,203.000 109.617 C 203.000 108.856,202.100 107.998,201.000 107.710 C 199.486 107.314,199.000 106.346,199.000 103.728 C 199.000 101.826,198.136 99.171,197.079 97.828 C 196.022 96.484,195.235 94.528,195.329 93.481 C 195.428 92.380,194.762 91.424,193.750 91.215 C 192.537 90.964,192.000 91.479,192.000 92.895 M147.783 101.636 C 147.535 103.831,147.802 104.630,148.672 104.296 C 149.390 104.020,150.191 104.914,150.567 106.411 C 150.925 107.838,152.069 110.674,153.109 112.714 C 155.207 116.828,155.514 119.000,154.000 119.000 C 153.450 119.000,153.000 119.675,153.000 120.500 C 153.000 122.318,154.603 122.483,155.428 120.750 C 155.755 120.063,155.834 120.513,155.605 121.750 C 155.335 123.203,155.679 124.000,156.575 124.000 C 157.338 124.000,158.249 125.237,158.601 126.750 C 158.952 128.262,159.973 130.114,160.870 130.865 C 162.038 131.843,162.154 132.360,161.280 132.688 C 160.413 133.014,160.586 133.712,161.875 135.097 C 164.592 138.013,166.313 146.597,165.571 153.525 C 165.219 156.811,164.833 161.588,164.715 164.139 C 164.597 166.691,163.781 169.616,162.902 170.639 C 162.023 171.663,161.025 173.287,160.683 174.250 C 160.342 175.213,159.599 176.000,159.031 176.000 C 157.707 176.000,157.708 174.692,159.035 173.365 C 159.604 172.796,160.320 169.782,160.626 166.668 C 161.082 162.023,160.890 160.895,159.554 160.382 C 158.658 160.039,157.120 160.487,156.134 161.379 C 155.149 162.270,154.068 163.000,153.733 163.000 C 152.896 163.000,151.482 154.095,151.814 150.913 C 151.963 149.490,151.270 147.320,150.275 146.092 C 147.494 142.657,148.594 131.959,152.014 129.190 L 154.499 127.177 150.250 123.012 C 145.641 118.494,145.559 118.291,146.915 114.724 C 147.644 112.807,147.425 112.033,145.836 110.909 C 142.766 108.739,137.996 101.175,138.639 99.498 C 138.966 98.645,140.460 98.000,142.107 98.000 C 144.696 98.000,145.004 97.659,145.039 94.750 L 145.078 91.500 146.609 95.000 C 147.450 96.925,147.979 99.911,147.783 101.636 M163.250 98.482 C 163.250 99.847,163.605 100.744,164.040 100.476 C 164.474 100.207,165.031 100.553,165.278 101.244 C 165.524 101.935,166.025 102.225,166.391 101.889 C 167.258 101.091,165.320 96.000,164.150 96.000 C 163.655 96.000,163.250 97.117,163.250 98.482 M167.000 99.000 C 167.000 99.550,167.477 100.000,168.059 100.000 C 168.641 100.000,168.840 99.550,168.500 99.000 C 168.160 98.450,167.684 98.000,167.441 98.000 C 167.198 98.000,167.000 98.450,167.000 99.000 M183.606 100.584 C 183.233 101.557,183.456 102.015,184.187 101.771 C 185.682 101.273,186.505 99.000,185.190 99.000 C 184.653 99.000,183.941 99.713,183.606 100.584 M169.000 105.865 C 169.000 107.041,172.880 108.453,173.742 107.591 C 174.511 106.822,173.994 106.400,171.250 105.557 C 169.956 105.159,169.000 105.290,169.000 105.865 M163.500 107.000 C 163.160 107.550,163.584 108.000,164.441 108.000 C 165.298 108.000,166.000 107.550,166.000 107.000 C 166.000 106.450,165.577 106.000,165.059 106.000 C 164.541 106.000,163.840 106.450,163.500 107.000 M207.000 113.500 C 207.000 114.325,207.730 115.000,208.622 115.000 C 209.951 115.000,210.020 114.729,209.000 113.500 C 208.315 112.675,207.585 112.000,207.378 112.000 C 207.170 112.000,207.000 112.675,207.000 113.500 M122.661 117.441 C 121.425 120.663,121.904 127.000,123.383 127.000 C 125.919 127.000,126.801 120.478,124.661 117.551 C 123.411 115.841,123.278 115.834,122.661 117.441 M192.500 118.000 C 192.160 118.550,192.332 119.000,192.882 119.000 C 193.432 119.000,194.160 118.550,194.500 118.000 C 194.840 117.450,194.668 117.000,194.118 117.000 C 193.568 117.000,192.840 117.450,192.500 118.000 M223.973 118.000 C 223.847 118.275,223.626 119.400,223.482 120.500 C 223.337 121.600,222.924 123.215,222.564 124.090 C 222.190 124.998,222.567 126.226,223.443 126.952 C 224.694 127.991,225.076 127.967,225.516 126.820 C 226.010 125.531,224.493 116.859,223.973 118.000 M174.000 120.000 C 174.000 120.550,174.417 121.000,174.927 121.000 C 175.436 121.000,176.059 121.787,176.311 122.750 C 176.592 123.827,176.813 123.442,176.884 121.750 C 176.961 119.921,176.498 119.000,175.500 119.000 C 174.675 119.000,174.000 119.450,174.000 120.000 M196.000 121.000 C 196.000 121.733,196.300 122.033,196.667 121.667 C 197.033 121.300,197.033 120.700,196.667 120.333 C 196.300 119.967,196.000 120.267,196.000 121.000 M195.408 126.149 C 195.165 126.541,195.384 127.119,195.893 127.434 C 197.044 128.145,200.000 127.081,200.000 125.955 C 200.000 124.962,196.038 125.130,195.408 126.149 M176.250 129.662 C 174.820 130.239,174.551 132.000,175.893 132.000 C 176.384 132.000,177.045 131.325,177.362 130.500 C 177.678 129.675,177.839 129.036,177.719 129.079 C 177.598 129.122,176.938 129.385,176.250 129.662 M224.000 131.000 C 224.000 131.550,224.473 132.000,225.052 132.000 C 225.631 132.000,226.575 133.350,227.150 135.000 C 228.206 138.030,230.000 139.100,230.000 136.699 C 230.000 134.042,227.443 130.015,225.750 130.008 C 224.787 130.004,224.000 130.450,224.000 131.000 M120.438 133.100 C 120.025 133.768,119.744 135.816,119.813 137.651 C 119.971 141.849,123.915 155.000,125.016 155.000 C 126.076 155.000,127.984 146.121,127.304 144.350 C 127.019 143.607,126.343 143.000,125.801 143.000 C 125.236 143.000,124.962 140.761,125.158 137.750 C 125.467 133.009,125.291 132.470,123.344 132.193 C 122.159 132.024,120.851 132.432,120.438 133.100 M158.000 134.000 C 158.000 134.733,158.300 135.033,158.667 134.667 C 159.033 134.300,159.033 133.700,158.667 133.333 C 158.300 132.967,158.000 133.267,158.000 134.000 M172.985 145.095 C 172.993 145.972,173.889 147.495,174.976 148.479 C 177.227 150.516,176.791 152.000,173.941 152.000 C 172.482 152.000,172.000 151.305,172.000 149.200 C 172.000 147.660,171.535 145.935,170.967 145.367 C 170.399 144.799,170.237 143.546,170.606 142.583 C 171.138 141.199,171.455 141.112,172.124 142.166 C 172.589 142.900,172.976 144.218,172.985 145.095 M156.000 144.000 C 156.000 144.550,156.450 145.000,157.000 145.000 C 157.550 145.000,158.000 144.550,158.000 144.000 C 158.000 143.450,157.550 143.000,157.000 143.000 C 156.450 143.000,156.000 143.450,156.000 144.000 M227.325 153.658 C 227.687 154.020,227.486 154.915,226.879 155.646 C 225.458 157.358,228.604 158.796,230.225 157.175 C 231.423 155.977,229.631 153.000,227.711 153.000 C 227.137 153.000,226.963 153.296,227.325 153.658 M175.667 154.667 C 175.300 155.033,174.700 155.033,174.333 154.667 C 173.967 154.300,174.267 154.000,175.000 154.000 C 175.733 154.000,176.033 154.300,175.667 154.667 M189.000 158.000 C 189.000 158.550,188.550 159.000,188.000 159.000 C 187.450 159.000,187.000 158.550,187.000 158.000 C 187.000 157.450,187.450 157.000,188.000 157.000 C 188.550 157.000,189.000 157.450,189.000 158.000 M231.548 160.947 C 229.991 162.667,229.944 163.251,231.138 165.949 C 232.991 170.136,234.348 169.272,234.699 163.682 C 235.019 158.591,234.269 157.940,231.548 160.947 M238.500 161.000 C 238.160 161.550,238.332 162.000,238.882 162.000 C 239.432 162.000,240.160 161.550,240.500 161.000 C 240.840 160.450,240.668 160.000,240.118 160.000 C 239.568 160.000,238.840 160.450,238.500 161.000 M203.716 169.217 C 204.560 170.161,205.250 172.047,205.250 173.408 C 205.250 174.769,205.869 176.119,206.625 176.410 C 207.381 176.700,208.000 177.707,208.000 178.648 C 208.000 179.588,208.532 181.830,209.183 183.630 C 210.100 186.166,210.093 187.501,209.150 189.570 C 208.132 191.804,208.165 192.151,209.354 191.695 C 210.321 191.323,210.631 191.696,210.325 192.864 C 210.079 193.807,210.805 195.418,211.938 196.444 C 215.197 199.394,214.633 201.296,210.750 200.454 C 207.443 199.736,206.043 198.493,206.015 196.250 C 206.007 195.563,205.662 194.998,205.250 194.996 C 204.418 194.992,201.463 188.070,200.416 183.670 C 199.917 181.573,200.317 180.062,201.959 177.841 C 204.440 174.486,203.929 172.939,200.955 174.796 C 199.215 175.883,199.000 175.748,199.000 173.567 C 199.000 172.220,199.489 170.816,200.087 170.446 C 200.685 170.077,200.941 168.882,200.656 167.791 C 200.370 166.700,200.439 165.063,200.809 164.154 C 201.335 162.860,201.558 163.045,201.832 165.000 C 202.025 166.375,202.873 168.273,203.716 169.217 M237.501 164.998 C 236.533 166.564,235.945 176.104,236.739 177.365 C 237.420 178.448,237.810 181.953,237.978 188.500 C 238.077 192.389,242.448 197.952,244.103 196.297 C 244.771 195.629,244.947 194.362,244.517 193.317 C 243.339 190.457,243.012 185.111,243.979 184.513 C 245.442 183.609,243.939 168.805,242.130 166.311 C 240.388 163.908,238.505 163.374,237.501 164.998 M134.000 170.000 C 134.000 170.550,134.450 171.000,135.000 171.000 C 135.550 171.000,136.000 170.550,136.000 170.000 C 136.000 169.450,135.550 169.000,135.000 169.000 C 134.450 169.000,134.000 169.450,134.000 170.000 M229.092 181.703 C 226.225 185.059,226.090 185.516,227.544 186.940 C 228.990 188.357,229.359 188.225,231.563 185.500 C 236.311 179.631,233.954 176.010,229.092 181.703 M226.655 192.829 C 224.234 195.504,224.525 197.285,227.242 196.423 C 229.287 195.774,229.357 195.865,228.030 197.464 C 226.748 199.009,226.775 199.362,228.260 200.448 C 229.210 201.143,229.914 202.948,229.874 204.590 C 229.799 207.673,230.138 209.821,231.810 216.885 C 232.802 221.076,231.851 225.000,229.843 225.000 C 229.471 225.000,228.193 221.854,227.003 218.009 C 225.813 214.165,224.476 210.794,224.033 210.520 C 223.590 210.246,222.930 208.442,222.568 206.511 C 222.206 204.580,221.570 203.000,221.155 203.000 C 218.068 203.000,216.948 211.130,219.086 218.007 C 219.684 219.928,220.376 223.025,220.625 224.888 C 220.874 226.752,221.510 229.085,222.039 230.072 C 222.567 231.060,223.000 232.728,223.000 233.779 C 223.000 236.244,226.491 239.409,228.400 238.677 C 229.212 238.365,230.314 236.524,230.849 234.584 C 231.385 232.644,232.684 229.807,233.737 228.279 C 238.292 221.665,238.656 219.127,237.793 200.000 C 237.483 193.123,236.674 192.383,231.750 194.472 C 230.402 195.043,230.000 194.730,230.000 193.107 C 230.000 190.516,228.836 190.419,226.655 192.829 M133.543 197.931 C 133.226 198.443,133.425 199.144,133.984 199.490 C 134.543 199.835,135.000 199.416,135.000 198.559 C 135.000 196.802,134.400 196.544,133.543 197.931 M136.000 198.000 C 136.000 198.550,136.450 199.000,137.000 199.000 C 137.550 199.000,138.000 198.550,138.000 198.000 C 138.000 197.450,137.550 197.000,137.000 197.000 C 136.450 197.000,136.000 197.450,136.000 198.000 M132.000 201.000 C 132.000 201.733,132.300 202.033,132.667 201.667 C 133.033 201.300,133.033 200.700,132.667 200.333 C 132.300 199.967,132.000 200.267,132.000 201.000 M195.570 203.500 C 196.607 205.425,197.802 207.000,198.227 207.000 C 198.652 207.000,199.000 207.675,199.000 208.500 C 199.000 209.363,199.903 210.000,201.125 210.000 C 202.980 210.000,203.173 210.412,202.643 213.250 C 202.107 216.116,202.194 216.293,203.378 214.750 C 205.602 211.851,207.721 212.542,207.213 216.000 C 206.971 217.650,206.197 219.000,205.493 219.000 C 204.790 219.000,203.955 219.675,203.638 220.500 C 202.671 223.022,199.956 222.172,198.850 219.000 C 198.275 217.350,197.173 216.000,196.402 216.000 C 195.631 216.000,195.000 215.351,195.000 214.557 C 195.000 213.763,194.028 212.432,192.839 211.600 C 190.593 210.026,189.623 206.122,190.518 202.250 C 191.277 198.967,193.414 199.496,195.570 203.500 M186.000 221.941 C 186.000 224.610,184.342 225.415,183.722 223.047 C 183.203 221.060,183.706 220.000,185.167 220.000 C 185.625 220.000,186.000 220.873,186.000 221.941 M235.000 233.000 C 235.000 233.550,235.450 234.000,236.000 234.000 C 236.550 234.000,237.000 233.550,237.000 233.000 C 237.000 232.450,236.550 232.000,236.000 232.000 C 235.450 232.000,235.000 232.450,235.000 233.000 M240.405 233.155 C 239.962 233.870,240.130 234.038,240.845 233.595 C 241.480 233.203,242.000 232.684,242.000 232.441 C 242.000 231.607,241.117 232.002,240.405 233.155 M215.421 236.542 C 215.822 238.138,215.540 239.603,214.663 240.480 C 213.469 241.674,212.923 241.638,210.884 240.229 C 205.396 236.437,204.677 234.785,208.879 235.626 C 210.516 235.953,212.051 235.727,212.438 235.101 C 213.564 233.279,214.746 233.850,215.421 236.542 M162.405 238.155 C 161.962 238.870,162.130 239.038,162.845 238.595 C 163.480 238.203,164.000 237.684,164.000 237.441 C 164.000 236.607,163.117 237.002,162.405 238.155 M150.330 239.417 C 150.629 240.197,150.152 241.111,149.270 241.450 C 148.060 241.914,147.949 242.349,148.816 243.216 C 150.231 244.631,150.648 244.252,151.527 240.748 C 151.996 238.880,151.828 238.000,151.001 238.000 C 150.333 238.000,150.031 238.638,150.330 239.417 M119.405 241.155 C 118.962 241.870,119.130 242.038,119.845 241.595 C 120.480 241.203,121.000 240.684,121.000 240.441 C 121.000 239.607,120.117 240.002,119.405 241.155 M119.975 243.284 C 119.137 243.953,116.227 246.901,113.509 249.835 C 109.950 253.677,108.522 256.057,108.406 258.335 C 108.318 260.076,107.975 263.525,107.645 266.000 C 107.095 270.112,106.627 272.514,104.048 284.457 C 103.227 288.257,103.537 293.843,104.744 297.000 C 105.059 297.825,105.244 298.842,105.155 299.261 C 104.886 300.522,111.374 305.939,113.191 305.971 C 114.121 305.987,115.174 306.472,115.530 307.049 C 115.970 307.761,116.645 307.709,117.637 306.886 C 119.300 305.507,130.400 305.608,133.052 307.028 C 134.222 307.654,136.025 307.323,138.828 305.969 C 143.857 303.539,143.933 303.540,143.290 306.000 C 143.002 307.100,142.454 308.000,142.072 308.000 C 141.690 308.000,140.505 308.788,139.439 309.750 C 138.372 310.712,135.508 312.175,133.073 313.000 C 130.638 313.825,128.447 315.112,128.203 315.861 C 127.490 318.048,139.094 316.723,143.273 314.141 C 145.154 312.978,147.011 312.344,147.399 312.733 C 147.788 313.121,147.831 312.723,147.495 311.849 C 147.131 310.898,147.511 310.018,148.443 309.660 C 149.464 309.269,150.011 307.760,150.032 305.281 C 150.060 301.923,150.212 301.696,151.392 303.250 C 152.803 305.109,155.000 305.616,155.000 304.083 C 155.000 303.579,154.438 302.932,153.750 302.646 C 151.551 301.730,156.042 298.972,158.662 299.630 C 160.387 300.063,161.000 299.795,161.000 298.608 C 161.000 297.632,161.840 297.000,163.140 297.000 C 164.444 297.000,167.541 294.660,171.070 291.009 C 176.965 284.909,179.214 280.905,177.133 280.211 C 176.510 280.003,176.000 279.169,176.000 278.358 C 176.000 277.546,175.532 277.171,174.959 277.525 C 174.387 277.879,174.175 278.977,174.489 279.966 C 175.016 281.625,173.717 282.786,170.500 283.535 C 169.950 283.663,165.246 285.858,160.047 288.413 C 154.849 290.968,150.023 292.839,149.324 292.571 C 148.625 292.303,147.703 292.680,147.276 293.410 C 146.428 294.860,135.940 296.955,128.918 297.077 C 126.488 297.119,122.700 297.714,120.500 298.398 C 116.968 299.496,116.004 299.406,112.255 297.624 C 107.267 295.253,106.402 293.366,108.488 289.402 C 109.330 287.800,109.770 285.350,109.468 283.934 C 109.104 282.225,109.603 280.504,110.961 278.777 C 112.082 277.351,113.000 275.558,113.000 274.792 C 113.000 274.027,113.540 272.860,114.200 272.200 C 114.860 271.540,115.033 271.000,114.585 271.000 C 114.137 271.000,114.519 269.857,115.434 268.460 C 116.350 267.063,117.218 264.025,117.364 261.710 C 117.527 259.109,118.789 255.653,120.664 252.668 C 124.837 246.027,124.377 239.773,119.975 243.284 M226.750 247.989 C 224.688 250.181,223.000 252.655,223.000 253.487 C 223.000 255.499,228.333 255.509,230.000 253.500 C 230.685 252.675,232.104 252.000,233.154 252.000 C 234.204 252.000,235.308 251.361,235.607 250.581 C 236.248 248.913,233.281 243.999,231.635 244.002 C 231.011 244.003,228.813 245.797,226.750 247.989 M238.229 246.188 C 238.847 248.042,241.000 248.349,241.000 246.583 C 241.000 245.713,240.287 245.000,239.417 245.000 C 238.546 245.000,238.011 245.534,238.229 246.188 M247.000 249.000 C 247.000 249.550,247.450 250.000,248.000 250.000 C 248.550 250.000,249.000 249.550,249.000 249.000 C 249.000 248.450,248.550 248.000,248.000 248.000 C 247.450 248.000,247.000 248.450,247.000 249.000 M150.333 250.667 C 150.700 251.033,151.300 251.033,151.667 250.667 C 152.033 250.300,151.733 250.000,151.000 250.000 C 150.267 250.000,149.967 250.300,150.333 250.667 M123.000 253.059 C 123.000 253.641,123.450 253.840,124.000 253.500 C 124.550 253.160,125.000 252.684,125.000 252.441 C 125.000 252.198,124.550 252.000,124.000 252.000 C 123.450 252.000,123.000 252.477,123.000 253.059 M186.738 253.713 C 187.159 254.977,182.354 256.687,181.311 255.644 C 180.983 255.317,181.300 254.343,182.016 253.481 C 183.471 251.728,186.121 251.858,186.738 253.713 M125.000 255.000 C 125.000 255.733,125.300 256.033,125.667 255.667 C 126.033 255.300,126.033 254.700,125.667 254.333 C 125.300 253.967,125.000 254.267,125.000 255.000 M127.500 255.000 C 127.840 255.550,128.541 256.000,129.059 256.000 C 129.577 256.000,130.000 255.550,130.000 255.000 C 130.000 254.450,129.298 254.000,128.441 254.000 C 127.584 254.000,127.160 254.450,127.500 255.000 M170.000 261.500 C 170.000 262.325,170.450 263.000,171.000 263.000 C 171.550 263.000,172.000 262.325,172.000 261.500 C 172.000 260.675,171.550 260.000,171.000 260.000 C 170.450 260.000,170.000 260.675,170.000 261.500 M160.875 261.300 C 160.806 261.685,160.687 262.337,160.610 262.750 C 160.533 263.163,160.088 264.102,159.622 264.837 C 159.127 265.618,159.222 266.622,159.850 267.250 C 160.618 268.018,161.233 267.516,162.000 265.500 C 162.742 263.549,162.753 262.353,162.037 261.637 C 161.467 261.067,160.944 260.915,160.875 261.300 M164.042 267.732 C 163.239 268.047,161.444 269.362,160.052 270.653 C 158.660 271.944,157.178 273.000,156.760 273.000 C 156.342 273.000,156.000 273.464,156.000 274.031 C 156.000 276.035,158.991 276.170,162.946 274.346 C 166.183 272.853,166.953 271.974,166.974 269.750 C 167.000 266.957,166.641 266.709,164.042 267.732 M177.000 268.000 C 177.000 268.550,177.450 269.000,178.000 269.000 C 178.550 269.000,179.000 268.550,179.000 268.000 C 179.000 267.450,178.550 267.000,178.000 267.000 C 177.450 267.000,177.000 267.450,177.000 268.000 M189.000 270.000 C 189.000 270.550,189.477 271.000,190.059 271.000 C 190.641 271.000,190.840 271.450,190.500 272.000 C 190.160 272.550,190.359 273.000,190.941 273.000 C 192.168 273.000,192.218 272.731,191.393 270.582 C 190.724 268.837,189.000 268.418,189.000 270.000 M277.000 271.000 C 277.000 271.733,277.300 272.033,277.667 271.667 C 278.033 271.300,278.033 270.700,277.667 270.333 C 277.300 269.967,277.000 270.267,277.000 271.000 M277.000 274.000 C 277.000 274.550,277.702 275.000,278.559 275.000 C 279.416 275.000,279.840 274.550,279.500 274.000 C 279.160 273.450,278.459 273.000,277.941 273.000 C 277.423 273.000,277.000 273.450,277.000 274.000 M184.000 278.406 C 184.000 279.320,184.700 279.630,186.000 279.290 C 187.100 279.002,188.000 278.369,188.000 277.883 C 188.000 277.398,187.100 277.000,186.000 277.000 C 184.900 277.000,184.000 277.633,184.000 278.406 M223.500 278.000 C 223.160 278.550,222.432 279.000,221.882 279.000 C 221.332 279.000,221.160 278.550,221.500 278.000 C 221.840 277.450,222.568 277.000,223.118 277.000 C 223.668 277.000,223.840 277.450,223.500 278.000 M161.000 279.000 C 161.000 279.550,161.450 280.000,162.000 280.000 C 162.550 280.000,163.000 279.550,163.000 279.000 C 163.000 278.450,162.550 278.000,162.000 278.000 C 161.450 278.000,161.000 278.450,161.000 279.000 M278.000 278.927 C 278.000 279.517,278.539 280.000,279.197 280.000 C 279.855 280.000,278.562 281.348,276.322 282.995 C 273.358 285.174,272.250 286.702,272.250 288.608 C 272.250 290.049,271.644 291.602,270.904 292.059 C 270.164 292.517,269.890 293.223,270.296 293.629 C 270.701 294.035,271.566 293.834,272.217 293.183 C 272.868 292.533,273.760 292.000,274.200 292.000 C 275.560 292.000,275.082 294.687,273.488 296.010 C 272.318 296.981,272.239 297.583,273.138 298.667 C 274.487 300.291,273.498 302.623,268.186 310.344 C 266.354 313.008,265.092 315.426,265.384 315.717 C 265.675 316.008,267.958 315.643,270.457 314.905 C 274.539 313.699,275.421 312.940,275.155 310.860 C 274.956 309.300,288.047 295.337,291.106 293.846 C 292.973 292.937,296.525 291.227,299.000 290.047 C 301.475 288.867,304.175 287.506,305.000 287.023 C 305.825 286.540,307.288 285.901,308.250 285.604 C 309.400 285.248,310.000 284.049,310.000 282.106 L 310.000 279.149 302.750 279.446 C 298.762 279.610,294.409 279.333,293.076 278.830 C 290.970 278.037,290.021 278.539,285.826 282.671 C 281.043 287.382,279.846 287.821,282.243 283.983 C 283.162 282.510,283.199 281.539,282.386 280.247 C 281.130 278.254,278.000 277.311,278.000 278.927 M221.345 283.543 C 221.019 284.392,220.538 284.872,220.276 284.610 C 220.014 284.348,220.096 283.653,220.459 283.067 C 221.445 281.471,222.021 281.781,221.345 283.543 M247.500 290.000 C 247.160 290.550,247.809 291.000,248.941 291.000 C 250.073 291.000,251.000 291.481,251.000 292.070 C 251.000 293.851,246.545 292.630,246.187 290.750 C 246.003 289.788,246.363 289.000,246.986 289.000 C 247.608 289.000,247.840 289.450,247.500 290.000 M178.667 290.667 C 177.092 292.242,178.145 294.820,180.618 295.440 C 184.132 296.322,184.555 295.629,182.348 292.600 C 180.398 289.923,179.750 289.583,178.667 290.667 M226.000 304.087 C 226.000 304.589,226.450 305.000,227.000 305.000 C 227.550 305.000,228.000 305.663,228.000 306.474 C 228.000 307.285,229.321 308.632,230.937 309.467 C 234.833 311.482,235.313 312.470,232.478 312.640 C 230.795 312.740,230.306 312.365,230.719 311.291 C 231.204 310.025,230.981 309.995,229.226 311.091 C 227.577 312.121,226.861 312.130,225.662 311.134 C 224.439 310.119,223.984 310.207,223.200 311.607 C 222.329 313.163,222.173 313.121,221.552 311.163 C 221.174 309.973,220.393 309.000,219.816 309.000 C 219.236 309.000,218.981 307.882,219.245 306.500 C 219.508 305.125,219.371 304.000,218.942 304.000 C 218.337 304.000,218.293 295.485,218.885 293.023 C 219.065 292.277,226.000 303.062,226.000 304.087 M163.500 299.000 C 163.160 299.550,163.359 300.000,163.941 300.000 C 164.523 300.000,165.000 299.550,165.000 299.000 C 165.000 298.450,164.802 298.000,164.559 298.000 C 164.316 298.000,163.840 298.450,163.500 299.000 M258.000 301.000 C 258.000 301.733,258.300 302.033,258.667 301.667 C 259.033 301.300,259.033 300.700,258.667 300.333 C 258.300 299.967,258.000 300.267,258.000 301.000 M159.991 302.511 C 158.962 303.750,159.111 304.000,160.878 304.000 C 162.045 304.000,163.000 303.577,163.000 303.059 C 163.000 301.327,161.240 301.006,159.991 302.511 M167.500 305.713 C 166.400 305.978,165.072 306.600,164.550 307.097 C 164.028 307.594,162.790 308.000,161.800 308.000 C 159.870 308.000,159.328 310.467,161.027 311.517 C 162.736 312.573,170.969 308.082,170.338 306.438 C 170.034 305.647,169.722 305.052,169.643 305.116 C 169.564 305.180,168.600 305.448,167.500 305.713 M256.000 306.000 C 256.000 306.733,256.300 307.033,256.667 306.667 C 257.033 306.300,257.033 305.700,256.667 305.333 C 256.300 304.967,256.000 305.267,256.000 306.000 M113.333 308.667 C 113.700 309.033,114.300 309.033,114.667 308.667 C 115.033 308.300,114.733 308.000,114.000 308.000 C 113.267 308.000,112.967 308.300,113.333 308.667 M153.333 311.667 C 153.700 312.033,154.300 312.033,154.667 311.667 C 155.033 311.300,154.733 311.000,154.000 311.000 C 153.267 311.000,152.967 311.300,153.333 311.667 M122.003 312.998 C 120.270 314.069,121.213 315.314,123.395 314.838 C 124.319 314.637,124.644 314.016,124.197 313.303 C 123.718 312.538,122.926 312.428,122.003 312.998 M240.777 313.557 C 242.000 314.413,243.000 315.613,243.000 316.223 C 243.000 316.834,242.704 317.037,242.342 316.675 C 241.980 316.313,241.156 316.456,240.510 316.992 C 238.818 318.396,235.498 315.751,236.306 313.645 C 237.091 311.598,237.957 311.581,240.777 313.557 M152.459 314.067 C 152.096 314.653,152.040 315.373,152.333 315.667 C 153.050 316.383,155.000 315.121,155.000 313.941 C 155.000 312.663,153.274 312.748,152.459 314.067 M253.000 315.000 C 253.000 315.550,253.450 316.000,254.000 316.000 C 254.550 316.000,255.000 315.550,255.000 315.000 C 255.000 314.450,254.550 314.000,254.000 314.000 C 253.450 314.000,253.000 314.450,253.000 315.000 M145.185 316.277 C 144.603 316.979,142.894 317.655,141.388 317.780 C 139.882 317.905,137.906 318.680,136.996 319.503 C 136.087 320.326,134.494 321.000,133.457 321.000 C 131.692 321.000,131.679 321.108,133.249 322.677 C 134.641 324.070,135.365 324.155,137.510 323.177 C 138.931 322.530,140.894 322.000,141.873 322.000 C 143.838 322.000,148.000 318.051,148.000 316.186 C 148.000 314.625,146.516 314.673,145.185 316.277 M158.500 316.000 C 158.840 316.550,159.343 317.000,159.618 317.000 C 159.893 317.000,159.840 316.550,159.500 316.000 C 159.160 315.450,158.657 315.000,158.382 315.000 C 158.107 315.000,158.160 315.450,158.500 316.000 M261.000 316.000 C 261.000 316.733,261.300 317.033,261.667 316.667 C 262.033 316.300,262.033 315.700,261.667 315.333 C 261.300 314.967,261.000 315.267,261.000 316.000 M150.000 318.000 C 150.000 318.550,150.450 319.000,151.000 319.000 C 151.550 319.000,152.000 318.550,152.000 318.000 C 152.000 317.450,151.550 317.000,151.000 317.000 C 150.450 317.000,150.000 317.450,150.000 318.000 M251.500 318.000 C 251.160 318.550,251.584 319.000,252.441 319.000 C 253.298 319.000,254.000 318.550,254.000 318.000 C 254.000 317.450,253.577 317.000,253.059 317.000 C 252.541 317.000,251.840 317.450,251.500 318.000 M120.500 319.000 C 120.160 319.550,120.359 320.000,120.941 320.000 C 121.523 320.000,122.000 319.550,122.000 319.000 C 122.000 318.450,121.802 318.000,121.559 318.000 C 121.316 318.000,120.840 318.450,120.500 319.000 M244.667 321.667 C 244.300 322.033,243.700 322.033,243.333 321.667 C 242.967 321.300,243.267 321.000,244.000 321.000 C 244.733 321.000,245.033 321.300,244.667 321.667 M262.000 321.941 C 262.000 322.459,262.450 323.160,263.000 323.500 C 263.550 323.840,264.000 323.416,264.000 322.559 C 264.000 321.702,263.550 321.000,263.000 321.000 C 262.450 321.000,262.000 321.423,262.000 321.941 M236.500 323.917 C 233.472 325.114,225.633 325.964,226.629 324.988 C 227.374 324.257,230.925 323.656,237.000 323.231 C 237.825 323.174,237.600 323.483,236.500 323.917 M142.000 326.559 C 142.000 327.416,142.450 327.840,143.000 327.500 C 143.550 327.160,144.000 326.459,144.000 325.941 C 144.000 325.423,143.550 325.000,143.000 325.000 C 142.450 325.000,142.000 325.702,142.000 326.559 M267.029 325.961 C 266.220 326.473,265.818 327.151,266.136 327.469 C 266.924 328.257,270.000 327.002,270.000 325.893 C 270.000 324.753,268.899 324.778,267.029 325.961 " stroke="none" fill="black" fill-rule="evenodd"/></svg>